HIERARCHY
ROOT Hips
{
	OFFSET 0.00000 0.00000 0.00000
	CHANNELS 6 Xposition Yposition Zposition Zrotation Yrotation Xrotation 
	JOINT LHipJoint
	{
		OFFSET 0 0 0
		CHANNELS 3 Zrotation Yrotation Xrotation
		JOINT LeftHip
		{
			OFFSET 1.82298 -1.58346 0.87084
			CHANNELS 3 Zrotation Yrotation Xrotation
			JOINT LeftKnee
			{
				OFFSET 2.43790 -6.69809 0.00000
				CHANNELS 3 Zrotation Yrotation Xrotation
				JOINT LeftAnkle
				{
					OFFSET 2.59288 -7.12389 0.00000
					CHANNELS 3 Zrotation Yrotation Xrotation
					JOINT LeftToe
					{
						OFFSET 0.14552 -0.39981 2.13160
						CHANNELS 3 Zrotation Yrotation Xrotation
						End Site
						{
							OFFSET 0.00000 -0.00000 1.09427
						}
					}
				}
			}
		}
	}
	JOINT RHipJoint
	{
		OFFSET 0 0 0
		CHANNELS 3 Zrotation Yrotation Xrotation
		JOINT RightHip
		{
			OFFSET -1.77229 -1.58346 0.87084
			CHANNELS 3 Zrotation Yrotation Xrotation
			JOINT RightKnee
			{
				OFFSET -2.50703 -6.88801 0.00000
				CHANNELS 3 Zrotation Yrotation Xrotation
				JOINT RightAnkle
				{
					OFFSET -2.61620 -7.18796 0.00000
					CHANNELS 3 Zrotation Yrotation Xrotation
					JOINT RightToe
					{
						OFFSET -0.15190 -0.41735 2.15974
						CHANNELS 3 Zrotation Yrotation Xrotation
						End Site
						{
							OFFSET -0.00000 -0.00000 1.10919
						}
					}
				}
			}
		}
	}
	JOINT lowerback
	{
		OFFSET 0 0 0
		CHANNELS 3 Zrotation Yrotation Xrotation
		JOINT Chest
		{
			OFFSET -0.03602 2.12423 -0.30249
			CHANNELS 3 Zrotation Yrotation Xrotation
			JOINT Chest2
			{
				OFFSET 0.02717 2.10043 0.12912
				CHANNELS 3 Zrotation Yrotation Xrotation
				JOINT lowerneck
				{
					OFFSET 0 0 0
					CHANNELS 3 Zrotation Yrotation Xrotation
					JOINT Neck
					{
						OFFSET -0.06371 1.88656 0.11602
						CHANNELS 3 Zrotation Yrotation Xrotation
						JOINT Head
						{
							OFFSET 0.08208 1.87759 -0.11505
							CHANNELS 3 Zrotation Yrotation Xrotation
							End Site
							{
								OFFSET 0.03382 1.93090 -0.05483
							}
						}
					}
				}
				JOINT LeftCollar
				{
					OFFSET 0 0 0
					CHANNELS 3 Zrotation Yrotation Xrotation
					JOINT LeftShoulder
					{
						OFFSET 3.30903 1.40357 0.20156
CHANNELS 3 Zrotation Xrotation Yrotation
						JOINT LeftElbow
						{
OFFSET 0 -5.433010 0.000000
CHANNELS 3 Zrotation Xrotation Yrotation
							JOINT LeftWrist
							{
OFFSET 0 -3.159360 0.000000
CHANNELS 3 Zrotation Xrotation Yrotation
								JOINT lhand
								{
									OFFSET 0 0 0
CHANNELS 3 Zrotation Xrotation Yrotation
									JOINT LFingers
									{
OFFSET 0 -0.712830 0.000000
CHANNELS 3 Zrotation Xrotation Yrotation
										End Site
										{
OFFSET 0 -0.574700 0.000000
										}
									}
								}
								JOINT LThumb
								{
OFFSET 0 0.000000 0.000000
CHANNELS 3 Zrotation Xrotation Yrotation
									End Site
									{
OFFSET 0 -0.583470 0.583470
									}
								}
							}
						}
					}
				}
				JOINT RightCollar
				{
					OFFSET 0 0 0
					CHANNELS 3 Zrotation Yrotation Xrotation
					JOINT RightShoulder
					{
						OFFSET -3.12947 1.60037 -0.00464
CHANNELS 3 Zrotation Xrotation Yrotation
						JOINT RightElbow
						{
OFFSET 0 -5.341940 0.000000
CHANNELS 3 Zrotation Xrotation Yrotation
							JOINT RightWrist
							{
OFFSET 0 -3.193510 0.000000
CHANNELS 3 Zrotation Xrotation Yrotation
								JOINT rhand
								{
									OFFSET 0 0 0
CHANNELS 3 Zrotation Xrotation Yrotation
									JOINT RFingers
									{
OFFSET 0 -0.743860 0.000000
CHANNELS 3 Zrotation Xrotation Yrotation
										End Site
										{
OFFSET 0 -0.599720 0.000000
										}
									}
								}
								JOINT RThumb
								{
OFFSET 0 0.000000 0.000000
CHANNELS 3 Zrotation Xrotation Yrotation
									End Site
									{
OFFSET 0 -0.608880 0.608880
									}
								}
							}
						}
					}
				}
			}
		}
	}
}
MOTION
Frames: 13
Frame Time: .0083333
-2.7296 13.9166 -35.8842 -10.7553 -22.5979 7.9121 0.0000 0.0000 0.0000 0.3843 11.0782 -68.7557 16.4086 19.6879 79.4468 0.8022 -4.3532 -16.0155 0.0018 -0.2706 -0.7435 0.0000 0.0000 0.0000 12.6847 -7.5002 8.7127 -4.3889 -12.6607 38.1113 -2.4411 -17.8888 -40.1178 -2.8803 10.4987 -30.6074 3.1078 2.7879 7.7509 2.8289 4.1984 -1.7437 0.6720 2.0050 -6.1661 -2.2859 0.3475 -6.8573 4.7963 0.0335 14.2530 1.8783 0.2130 5.4120 -0.0000 0.0000 0.0000 10.7385 -11.791 -39.5747 95.1227 -59.9006 64.4349 35.6264 4.1366 -13.5136 0.0 0.0 0.0 -7.1250 0.0 0.0 7.8408 46.3006 -0.2532 -0.0000 0.0000 0.0000 -19.736 13.351 41.3697 -113.3809 -57.8301 -80.1009 -29.4945 31.3132 24.8049 0.0 0.0 0.0 7.1250 0.0 -0.0 0.0244 57.9473 -0.0077
-2.7304 13.9151 -35.8832 -10.7345 -22.5999 7.9060 0.0000 0.0000 0.0000 0.3677 11.0622 -68.7589 16.4149 19.6890 79.4656 0.8042 -4.3109 -16.0394 0.0024 -0.3147 -0.8647 0.0000 0.0000 0.0000 12.6601 -7.5042 8.7130 -4.3916 -12.6641 38.1236 -2.4385 -17.9133 -40.1253 -2.8592 10.4636 -30.4914 3.0675 2.7697 7.7410 2.8484 4.1711 -1.7490 0.7186 1.9934 -6.1706 -2.3088 0.3544 -6.8279 4.7655 0.0500 14.2462 1.8733 0.2174 5.4042 0.0000 0.0000 0.0000 10.7106 -11.7511 -39.5242 95.1329 -59.9002 64.4437 35.6868 4.1721 -13.5325 0.0 0.0 0.0 -7.1250 0.0 0.0 7.8997 46.3326 -0.2614 0.0000 0.0000 0.0000 -19.7928 13.3603 41.439 -113.4126 -57.824 -80.1278 -29.573 31.3408 24.8307 0.0 0.0 0.0 7.1250 0.0 -0.0 -0.0572 57.9938 0.0182
-2.7307 13.9141 -35.8824 -10.7613 -22.5874 7.9265 0.0000 0.0000 0.0000 0.4022 11.0338 -68.7757 16.4173 19.6894 79.4725 0.8027 -4.2847 -16.0260 0.0023 -0.3070 -0.8436 0.0000 0.0000 0.0000 12.6938 -7.5063 8.6929 -4.3950 -12.6682 38.1388 -2.4322 -17.9348 -40.1135 -2.8584 10.4623 -30.4870 3.1211 2.7714 7.7229 2.8370 4.1765 -1.7404 0.6773 1.9942 -6.1465 -2.2948 0.3437 -6.8623 4.7785 0.0324 14.2443 1.8740 0.2108 5.4102 -0.0000 -0.0000 0.0000 10.7374 -11.8013 -39.5527 95.1009 -59.9015 64.416 35.6864 4.1399 -13.5226 0.0 0.0 0.0 -7.1250 0.0 0.0 7.8992 46.3207 -0.2591 -0.0000 -0.0000 0.0000 -19.7459 13.3409 41.3929 -113.4038 -57.8257 -80.1203 -29.5469 31.2709 24.7952 0.0 0.0 0.0 7.1250 0.0 -0.0 -0.0380 57.9491 0.012
-2.7319 13.9138 -35.8813 -10.7333 -22.5924 7.9356 0.0000 0.0000 0.0000 0.3837 11.0149 -68.7825 16.4174 19.6894 79.4729 0.8019 -4.2711 -16.0193 0.0024 -0.3167 -0.8702 0.0000 0.0000 0.0000 12.6682 -7.4945 8.6796 -4.3986 -12.6727 38.1554 -2.4546 -17.8582 -40.1559 -2.8758 10.4913 -30.5827 3.0858 2.7724 7.6968 2.8305 4.1727 -1.7417 0.6919 1.9937 -6.1349 -2.2785 0.3407 -6.8903 4.7665 0.0282 14.2501 1.8675 0.2092 5.4170 0.0000 0.0000 0.0000 10.7447 -11.8083 -39.5577 95.0923 -59.9018 64.4086 35.7096 4.1431 -13.5782 0.0 0.0 0.0 -7.1250 0.0 0.0 7.9223 46.3906 -0.2736 0.0000 0.0000 0.0000 -19.7438 13.3303 41.389 -113.3879 -57.8288 -80.1069 -29.4924 31.1718 24.7602 0.0 0.0 0.0 7.1250 0.0 -0.0 0.0135 57.8981 -0.0043
-2.7327 13.9133 -35.8807 -10.7385 -22.5798 7.9428 0.0000 0.0000 0.0000 0.3993 10.9929 -68.7870 16.4209 19.6901 79.4832 0.8031 -4.2689 -16.0317 0.0021 -0.2962 -0.8140 0.0000 0.0000 0.0000 12.6722 -7.5216 8.6581 -4.4018 -12.6767 38.1698 -2.4410 -17.9065 -40.1316 -2.8740 10.4883 -30.5728 3.1008 2.7679 7.7062 2.8332 4.1688 -1.7423 0.6864 1.9912 -6.1401 -2.1933 0.3380 -6.7518 4.6610 0.0330 14.0966 1.8185 0.2063 5.3459 -0.0000 0.0000 0.0000 10.7635 -11.8052 -39.5636 95.1466 -59.8997 64.4556 35.7762 4.0761 -13.5397 0.0 0.0 0.0 -7.1250 0.0 0.0 7.9866 46.3553 -0.2688 -0.0000 0.0000 0.0000 -19.7332 13.3229 41.3486 -113.3738 -57.8315 -80.0949 -29.4487 30.948 24.4496 0.0 0.0 0.0 7.1250 0.0 -0.0 -0.0280 57.55 0.0086
-2.7339 13.9128 -35.8796 -10.7259 -22.5938 7.9482 0.0000 0.0000 0.0000 0.3922 10.9947 -68.7839 16.4209 19.6901 79.4833 0.8041 -4.2505 -16.0429 0.0025 -0.3218 -0.8843 0.0000 0.0000 0.0000 12.6664 -7.4995 8.6419 -4.4046 -12.6801 38.1826 -2.4346 -17.9475 -40.1350 -2.8539 10.4547 -30.4622 3.0793 2.7652 7.6984 2.8227 4.1628 -1.7561 0.6883 1.9887 -6.1510 -2.2980 0.3364 -6.8625 4.8090 0.0187 14.2329 1.8831 0.2059 5.4071 0.0000 0.0000 0.0000 10.7695 -11.8155 -39.5566 95.0923 -59.9018 64.4086 35.6895 4.0521 -13.5337 0.0 0.0 0.0 -7.1250 0.0 0.0 7.9024 46.3345 -0.2619 0.0000 0.0000 0.0000 -19.7117 13.329 41.3892 -113.3509 -57.836 -80.0755 -29.5408 31.1745 24.7985 0.0 0.0 0.0 7.1250 0.0 -0.0 -0.0301 57.9512 0.0095
-2.7349 13.9124 -35.8794 -10.6943 -22.5724 7.9414 0.0000 0.0000 0.0000 0.3713 10.9530 -68.7826 16.4218 19.6902 79.4860 0.8036 -4.2343 -16.0397 0.0023 -0.3117 -0.8564 0.0000 0.0000 0.0000 12.6417 -7.5211 8.6381 -4.4061 -12.6820 38.1894 -2.4272 -17.9790 -40.1260 -2.8650 10.4733 -30.5234 3.0578 2.7637 7.7072 2.8060 4.1584 -1.7594 0.6828 1.9869 -6.1596 -2.2925 0.3324 -6.8788 4.8315 0.0094 14.2380 1.8888 0.2034 5.4118 -0.0000 -0.0000 0.0000 10.7847 -11.844 -39.5812 95.0941 -59.9017 64.4102 35.7067 4.0467 -13.5345 0.0 0.0 0.0 -7.1250 0.0 0.0 7.9191 46.3381 -0.2632 -0.0000 -0.0000 0.0000 -19.6715 13.3328 41.3516 -113.3156 -57.8428 -80.0457 -29.557 31.1969 24.8239 0.0 0.0 0.0 7.1250 0.0 -0.0 -0.0411 57.9826 0.013
-2.7361 13.9124 -35.8781 -10.6842 -22.5780 7.9395 0.0000 0.0000 0.0000 0.3665 10.9519 -68.7761 16.4228 19.6904 79.4889 0.8044 -4.2122 -16.0496 0.0029 -0.3494 -0.9601 0.0000 0.0000 0.0000 12.6331 -7.5156 8.6474 -4.4061 -12.6820 38.1896 -2.4444 -17.9176 -40.1566 -2.8397 10.4309 -30.3836 3.0360 2.7576 7.7081 2.8104 4.1487 -1.7647 0.7005 1.9829 -6.1677 -2.3179 0.3327 -6.8640 4.8544 0.0092 14.2436 1.9001 0.2034 5.4109 0.0000 -0.0000 0.0000 10.7908 -11.8405 -39.5687 95.1070 -59.9012 64.4214 35.7226 4.0859 -13.5817 0.0 0.0 0.0 -7.1250 0.0 0.0 7.9350 46.3969 -0.2753 0.0000 -0.0000 0.0000 -19.6776 13.3334 41.3597 -113.2944 -57.847 -80.0277 -29.5217 31.1473 24.7592 0.0 0.0 0.0 7.1250 0.0 -0.0 -0.0202 57.904 0.0064
-2.7376 13.9122 -35.8764 -10.6670 -22.5817 7.9402 0.0000 0.0000 0.0000 0.3529 10.9503 -68.7756 16.4248 19.6907 79.4947 0.8058 -4.1982 -16.0656 0.0028 -0.3440 -0.9453 0.0000 0.0000 0.0000 12.6156 -7.5218 8.6459 -4.4038 -12.6792 38.1792 -2.4242 -17.9856 -40.1173 -2.8474 10.4438 -30.4261 3.0227 2.7540 7.6711 2.8025 4.1395 -1.7500 0.7031 1.9794 -6.1313 -2.3157 0.3348 -6.8554 4.8613 0.0116 14.2183 1.9018 0.2048 5.4015 -0.0000 -0.0000 0.0000 10.8103 -11.8864 -39.5571 95.0812 -59.9022 64.399 35.7191 4.0271 -13.5117 0.0 0.0 0.0 -7.1250 0.0 0.0 7.9308 46.3129 -0.2586 -0.0000 -0.0000 0.0000 -19.6683 13.3277 41.3517 -113.3015 -57.8456 -80.0337 -29.4204 31.1486 24.7937 0.0 0.0 0.0 7.1250 0.0 -0.0 0.1052 57.9177 -0.0333
-2.7386 13.9125 -35.8744 -10.6126 -22.5844 7.9427 0.0000 0.0000 0.0000 0.2897 10.9407 -68.7886 16.4248 19.6907 79.4947 0.8066 -4.1696 -16.0757 0.0034 -0.3786 -1.0403 0.0000 0.0000 0.0000 12.5673 -7.5100 8.6544 -4.4004 -12.6749 38.1634 -2.4410 -17.9430 -40.1612 -2.8482 10.4452 -30.4308 2.9703 2.7598 7.6449 2.7881 4.1400 -1.7495 0.7184 1.9816 -6.1183 -2.3142 0.3187 -6.8706 4.8609 -0.0101 14.2161 1.9001 0.1945 5.4043 0.0000 0.0000 0.0000 10.8229 -11.9149 -39.5745 95.0748 -59.9025 64.3935 35.6843 4.0655 -13.5652 0.0 0.0 0.0 -7.1250 0.0 0.0 7.8976 46.3712 -0.2689 0.0000 0.0000 0.0000 -19.6515 13.318 41.3158 -113.2520 -57.8552 -79.9918 -29.4668 31.215 24.7594 0.0 0.0 0.0 7.1250 0.0 -0.0 0.0424 57.8913 -0.0134
-2.7401 13.9120 -35.8729 -10.6733 -22.5746 7.9515 0.0000 0.0000 0.0000 0.3617 10.9594 -68.7829 16.4312 19.6919 79.5137 0.8083 -4.1923 -16.0918 0.0036 -0.3852 -1.0583 0.0000 0.0000 0.0000 12.6351 -7.5156 8.6853 -4.3965 -12.6701 38.1459 -2.4389 -17.9533 -40.1599 -2.8352 10.4234 -30.3588 3.0212 2.7496 7.6303 2.8130 4.1310 -1.7314 0.7184 1.9762 -6.0893 -2.3370 0.3291 -6.8468 4.8717 0.0060 14.1887 1.9079 0.2014 5.3910 -0.0000 -0.0000 0.0000 10.8181 -11.947 -39.555 95.0766 -59.9024 64.395 35.691 4.1498 -13.6278 0.0 0.0 0.0 -7.1250 0.0 0.0 7.9047 46.447 -0.284 -0.0000 -0.0000 0.0000 -19.6702 13.2796 41.3264 -113.1990 -57.8654 -79.947 -29.4324 31.216 24.793 0.0 0.0 0.0 7.1250 0.0 -0.0 0.0914 57.9197 -0.0289
-2.7411 13.9116 -35.8719 -10.6858 -22.5645 7.9696 0.0000 0.0000 0.0000 0.3784 10.9539 -68.8070 16.4341 19.6924 79.5225 0.8062 -4.1888 -16.0697 0.0037 -0.3924 -1.0781 0.0000 0.0000 0.0000 12.6554 -7.5152 8.6918 -4.3926 -12.6653 38.1282 -2.4503 -17.9085 -40.1767 -2.8455 10.4406 -30.4156 3.0302 2.7558 7.6238 2.8118 4.1394 -1.7236 0.7117 1.9802 -6.0767 -2.3133 0.3164 -6.9144 4.8479 -0.0117 14.2400 1.8962 0.1936 5.4193 -0.0000 -0.0000 0.0000 10.838 -11.9907 -39.5741 95.0921 -59.9018 64.4085 35.723 4.1544 -13.6131 0.0 0.0 0.0 -7.1250 0.0 0.0 7.9356 46.4345 -0.2827 -0.0000 -0.0000 0.0000 -19.6553 13.2612 41.2922 -113.1707 -57.8709 -79.923 -29.4968 31.2605 24.8025 0.0 0.0 0.0 7.1250 0.0 -0.0 0.0211 57.9452 -0.0067
-2.7423 13.9115 -35.8703 -10.7005 -22.5705 7.9905 0.0000 0.0000 0.0000 0.4004 10.9623 -68.8210 16.4399 19.6934 79.5396 0.8061 -4.1994 -16.0686 0.0035 -0.3836 -1.0541 0.0000 0.0000 0.0000 12.6838 -7.4886 8.6956 -4.3899 -12.6619 38.1156 -2.4669 -17.8392 -40.1982 -2.8593 10.4637 -30.4917 3.0593 2.7569 7.5755 2.8050 4.1396 -1.7004 0.6914 1.9801 -6.0220 -2.3141 0.3189 -6.9106 4.8742 -0.0093 14.1676 1.9040 0.1960 5.3960 -0.0000 -0.0000 0.0000 10.8606 -12.0469 -39.5735 95.0748 -59.9025 64.3935 35.7515 4.1884 -13.6281 0.0 0.0 0.0 -7.1250 0.0 0.0 7.9635 46.4569 -0.2881 -0.0000 -0.0000 0.0000 -19.6193 13.1966 41.2638 -113.0929 -57.8858 -79.8571 -29.4685 31.2332 24.7698 0.0 0.0 0.0 7.1250 0.0 -0.0 0.0435 57.9029 -0.0137
